<svg width="33" height="33" viewBox="0 0 33 33" fill="none" xmlns="http://www.w3.org/2000/svg">
<path d="M8.7053 29.495C9.79964 29.495 10.8492 29.0603 11.623 28.2865C12.3968 27.5127 12.8315 26.4631 12.8315 25.3688C12.8315 24.2745 12.3968 23.225 11.623 22.4511C10.8492 21.6773 9.79964 21.2426 8.7053 21.2426C7.61097 21.2426 6.56145 21.6773 5.78764 22.4511C5.01382 23.225 4.5791 24.2745 4.5791 25.3688C4.5791 26.4631 5.01382 27.5127 5.78764 28.2865C6.56145 29.0603 7.61097 29.495 8.7053 29.495V29.495Z" stroke="#FFF9F9" stroke-width="1.5" stroke-linecap="round" stroke-linejoin="round"/>
<path d="M27.9609 22.618V6.48351C27.9609 3.04501 25.8053 2.56891 23.6231 3.16404L15.3707 5.41229C13.8631 5.82226 12.8315 7.01251 12.8315 8.73176V25.3556" stroke="#FFF9F9" stroke-width="1.5" stroke-linecap="round" stroke-linejoin="round"/>
<path d="M12.8315 12.9902L27.9609 8.86401M23.8347 26.7442C24.9291 26.7442 25.9786 26.3095 26.7524 25.5357C27.5262 24.7619 27.9609 23.7123 27.9609 22.618C27.9609 21.5237 27.5262 20.4742 26.7524 19.7003C25.9786 18.9265 24.9291 18.4918 23.8347 18.4918C22.7404 18.4918 21.6909 18.9265 20.9171 19.7003C20.1433 20.4742 19.7085 21.5237 19.7085 22.618C19.7085 23.7123 20.1433 24.7619 20.9171 25.5357C21.6909 26.3095 22.7404 26.7442 23.8347 26.7442V26.7442Z" stroke="#FFF9F9" stroke-width="1.5" stroke-linecap="round" stroke-linejoin="round"/>
</svg>
