<svg width="277" height="56" viewBox="0 0 277 56" fill="none" xmlns="http://www.w3.org/2000/svg">
<path d="M34.2143 39H26.2583L10.0343 22.62H27.1943V6.24003H6.91429V39H0.674286V11.622L6.13429 6.24003H0.674286V0.780029H27.9743C29.4303 0.780029 30.7043 1.32603 31.7963 2.41803C32.8883 3.51003 33.4343 4.78403 33.4343 6.24003V21.06C33.4343 25.22 31.6143 27.3 27.9743 27.3H23.2943V28.158L34.2143 39Z" fill="white"/>
<path d="M58.7995 22.62L53.3395 28.08H40.0795L45.5395 22.62H58.7995Z" fill="white"/>
<path d="M93.1409 33.54C93.1409 35.048 92.5949 36.348 91.5029 37.44C90.4629 38.48 89.1888 39 87.6808 39H65.8409V33.54H86.9008V22.62H71.3008C69.7928 22.62 68.4928 22.1 67.4008 21.06C66.3608 19.968 65.8409 18.668 65.8409 17.16V6.24003C65.8409 4.73203 66.3608 3.45803 67.4008 2.41803C68.4928 1.32603 69.7928 0.780029 71.3008 0.780029H93.1409V6.24003H72.0808V17.16H87.6808C89.1888 17.16 90.4629 17.706 91.5029 18.798C92.5949 19.838 93.1409 21.112 93.1409 22.62V33.54Z" fill="white"/>
<path d="M131.379 33.54C131.379 35.048 130.833 36.348 129.741 37.44C128.701 38.48 127.427 39 125.919 39H109.539C108.031 39 106.731 38.48 105.639 37.44C104.599 36.348 104.079 35.048 104.079 33.54V17.16C104.079 15.652 104.599 14.378 105.639 13.338C106.731 12.246 108.031 11.7 109.539 11.7H125.919C127.427 11.7 128.701 12.246 129.741 13.338C130.833 14.378 131.379 15.652 131.379 17.16V33.54ZM125.919 34.32V16.38H109.539V34.32H125.919Z" fill="white"/>
<path d="M165.717 11.7L160.959 16.38H147.777V34.32H164.157V39H147.777C146.269 39 144.969 38.48 143.877 37.44C142.837 36.348 142.317 35.048 142.317 33.54V17.16C142.317 15.652 142.837 14.378 143.877 13.338C144.969 12.246 146.269 11.7 147.777 11.7H165.717Z" fill="white"/>
<path d="M176.647 7.02003H171.187V0.780029H176.647V7.02003ZM176.647 39H171.187V15.6L176.647 10.14V39Z" fill="white"/>
<path d="M214.863 39H193.023C191.515 39 190.216 38.48 189.124 37.44C188.084 36.348 187.564 35.048 187.564 33.54V17.16C187.564 15.652 188.084 14.378 189.124 13.338C190.216 12.246 191.515 11.7 193.023 11.7H209.404C210.912 11.7 212.185 12.246 213.225 13.338C214.317 14.378 214.863 15.652 214.863 17.16V22.62L209.404 28.08H193.803L198.484 23.4H209.404V16.38H193.023V34.32H214.863V39Z" fill="white"/>
<path d="M241.38 39H230.46C228.952 39 227.652 38.48 226.56 37.44C225.52 36.348 225 35.048 225 33.54V16.38H217.2L221.88 11.7H225V6.24003L230.46 0.780029V11.7H241.38V16.38H230.46V34.32H241.38V39Z" fill="white"/>
<path d="M276.487 49.92C276.487 51.428 275.941 52.702 274.849 53.742C273.809 54.834 272.535 55.38 271.027 55.38H248.407L253.087 50.7H271.027V35.1L267.127 39H254.647C253.139 39 251.839 38.48 250.747 37.44C249.707 36.348 249.187 35.048 249.187 33.54V11.7H254.647V34.32H271.027V11.7H276.487V49.92Z" fill="white"/>
</svg>
