<svg width="35" height="35" viewBox="0 0 35 35" fill="none" xmlns="http://www.w3.org/2000/svg">
<path d="M24.7333 8.99793C27.6499 11.025 29.6624 14.2479 30.0708 17.9667M5.0895 18.0396C5.27285 16.2563 5.83633 14.533 6.74195 12.9859C7.64758 11.4388 8.87432 10.1038 10.3395 9.07085M11.9437 30.5375C13.6353 31.3979 15.5603 31.8792 17.5874 31.8792C19.5416 31.8792 21.3791 31.4417 23.027 30.6396M17.5874 11.2292C18.6627 11.2292 19.6938 10.802 20.4541 10.0417C21.2145 9.28144 21.6416 8.25025 21.6416 7.17502C21.6416 6.09978 21.2145 5.06859 20.4541 4.30829C19.6938 3.54798 18.6627 3.12085 17.5874 3.12085C16.5122 3.12085 15.481 3.54798 14.7207 4.30829C13.9604 5.06859 13.5333 6.09978 13.5333 7.17502C13.5333 8.25025 13.9604 9.28144 14.7207 10.0417C15.481 10.802 16.5122 11.2292 17.5874 11.2292V11.2292ZM7.04367 29.05C8.1189 29.05 9.15009 28.6229 9.9104 27.8626C10.6707 27.1023 11.0978 26.0711 11.0978 24.9958C11.0978 23.9206 10.6707 22.8894 9.9104 22.1291C9.15009 21.3688 8.1189 20.9417 7.04367 20.9417C5.96844 20.9417 4.93724 21.3688 4.17694 22.1291C3.41664 22.8894 2.9895 23.9206 2.9895 24.9958C2.9895 26.0711 3.41664 27.1023 4.17694 27.8626C4.93724 28.6229 5.96844 29.05 7.04367 29.05V29.05ZM27.9562 29.05C29.0314 29.05 30.0626 28.6229 30.8229 27.8626C31.5832 27.1023 32.0103 26.0711 32.0103 24.9958C32.0103 23.9206 31.5832 22.8894 30.8229 22.1291C30.0626 21.3688 29.0314 20.9417 27.9562 20.9417C26.8809 20.9417 25.8497 21.3688 25.0894 22.1291C24.3291 22.8894 23.902 23.9206 23.902 24.9958C23.902 26.0711 24.3291 27.1023 25.0894 27.8626C25.8497 28.6229 26.8809 29.05 27.9562 29.05V29.05Z" stroke="white" stroke-width="2" stroke-linecap="round" stroke-linejoin="round"/>
</svg>
